<?xml version="1.0" encoding="UTF-8" standalone="no"?>
<!DOCTYPE svg PUBLIC "-//W3C//DTD SVG 1.1//EN"
 "http://www.w3.org/Graphics/SVG/1.1/DTD/svg11.dtd">
<!-- Generated by graphviz version 2.38.0 (20140413.2041)
 -->
<!-- Title: G Pages: 1 -->
<svg width="163pt" height="222pt"
 viewBox="0.00 0.00 163.00 222.00" xmlns="http://www.w3.org/2000/svg" xmlns:xlink="http://www.w3.org/1999/xlink">
<g id="graph0" class="graph" transform="scale(1 1) rotate(0) translate(4 218)">
<title>G</title>
<polygon fill="white" stroke="none" points="-4,4 -4,-218 159,-218 159,4 -4,4"/>
<g id="clust1" class="cluster"><title>cluster_Global</title>
<path fill="none" stroke="gray" d="M20,-8C20,-8 135,-8 135,-8 141,-8 147,-14 147,-20 147,-20 147,-194 147,-194 147,-200 141,-206 135,-206 135,-206 20,-206 20,-206 14,-206 8,-200 8,-194 8,-194 8,-20 8,-20 8,-14 14,-8 20,-8"/>
<text text-anchor="middle" x="77.5" y="-193.2" font-family="Times,serif" font-size="11.00" fill="gray">Global</text>
</g>
<g id="clust2" class="cluster"><title>cluster_\unikent</title>
<path fill="none" stroke="gray" d="M28,-16C28,-16 127,-16 127,-16 133,-16 139,-22 139,-28 139,-28 139,-166 139,-166 139,-172 133,-178 127,-178 127,-178 28,-178 28,-178 22,-178 16,-172 16,-166 16,-166 16,-28 16,-28 16,-22 22,-16 28,-16"/>
<text text-anchor="middle" x="77.5" y="-165.2" font-family="Times,serif" font-size="11.00" fill="gray">unikent</text>
</g>
<g id="clust3" class="cluster"><title>cluster_\unikent\ReadingLists</title>
<path fill="none" stroke="gray" d="M36,-24C36,-24 119,-24 119,-24 125,-24 131,-30 131,-36 131,-36 131,-138 131,-138 131,-144 125,-150 119,-150 119,-150 36,-150 36,-150 30,-150 24,-144 24,-138 24,-138 24,-36 24,-36 24,-30 30,-24 36,-24"/>
<text text-anchor="middle" x="77.5" y="-137.2" font-family="Times,serif" font-size="11.00" fill="gray">ReadingLists</text>
</g>
<!-- \\unikent\\ReadingLists\\ReadingList -->
<g id="node1" class="node"><title>\\unikent\\ReadingLists\\ReadingList</title>
<polygon fill="none" stroke="black" points="123,-122 32,-122 32,-86 123,-86 123,-122"/>
<text text-anchor="middle" x="77.5" y="-101.2" font-family="Courier,monospace" font-size="11.00">ReadingList</text>
</g>
<!-- \\unikent\\ReadingLists\\API -->
<g id="node2" class="node"><title>\\unikent\\ReadingLists\\API</title>
<polygon fill="none" stroke="black" points="104.5,-68 50.5,-68 50.5,-32 104.5,-32 104.5,-68"/>
<text text-anchor="middle" x="77.5" y="-47.2" font-family="Courier,monospace" font-size="11.00">API</text>
</g>
</g>
</svg>
